<svg xmlns="http://www.w3.org/2000/svg" xmlns:xlink="http://www.w3.org/1999/xlink" width="262.656" height="264.614" viewBox="0 0 262.656 264.614">
  <defs>
    <linearGradient id="linear-gradient" y1="0.5" x2="1" y2="0.5" gradientUnits="objectBoundingBox">
      <stop offset="0" stop-color="#fff" stop-opacity="0.2"/>
      <stop offset="1" stop-color="#fff" stop-opacity="0.698"/>
    </linearGradient>
    <clipPath id="clip-path">
      <ellipse id="Ellipse_167" data-name="Ellipse 167" cx="18.953" cy="12.685" rx="18.953" ry="12.685" transform="matrix(0.774, -0.633, 0.633, 0.774, 540.973, 259.473)" fill="none"/>
    </clipPath>
    <clipPath id="clip-path-2">
      <ellipse id="Ellipse_169" data-name="Ellipse 169" cx="19.47" cy="13.03" rx="19.47" ry="13.03" transform="translate(521.624 310.63) rotate(-39.29)" fill="none"/>
    </clipPath>
  </defs>
  <g id="OBJECTS-smcdo" transform="translate(-362.299 -132.55)">
    <path id="Path_7757" data-name="Path 7757" d="M417.28,244.83c8.43-37.06,47-59.3,83.15-47.66.73.23,1.46.47,2.2.73,47.3,16.26,31.78,64.3,55.43,79.08s40.65,36.21,30.3,64.3S515.2,396,465.68,365.67C426.75,341.85,406.55,292,417.28,244.83Z" fill="none" stroke="rgba(255,142,159,0.29)" stroke-miterlimit="10" stroke-width="1.11"/>
    <circle id="Ellipse_163" data-name="Ellipse 163" cx="30.67" cy="30.67" r="30.67" transform="translate(362.935 221.503) rotate(-80.91)" fill="none" stroke="#ff8e9f" stroke-miterlimit="10" stroke-width="1.11"/>
    <path id="Path_7758" data-name="Path 7758" d="M545.56,334.63H438.28a3.33,3.33,0,0,1-3-4.68L511.4,159.22a3.31,3.31,0,0,1,3-2H621.67a3.33,3.33,0,0,1,3,4.68L548.59,332.65A3.32,3.32,0,0,1,545.56,334.63Z" fill="url(#linear-gradient)"/>
    <path id="Path_7759" data-name="Path 7759" d="M578.07,214.2l34.62-77.65a2.85,2.85,0,0,0-2.6-4H513a9.129,9.129,0,0,0-8.339,5.418L469.52,216.79a2.85,2.85,0,0,0,2.6,4h95.84A11.12,11.12,0,0,0,578.07,214.2Z" fill="#fff"/>
    <path id="Path_7760" data-name="Path 7760" d="M565.5,267.41l34.62-77.65a2.84,2.84,0,0,0-2.6-4H500.39a9.12,9.12,0,0,0-8.34,5.41L456.9,270a2.85,2.85,0,0,0,2.6,4h95.85a11.11,11.11,0,0,0,10.151-6.591Z" fill="none" stroke="#fff" stroke-miterlimit="10" stroke-width="1.11"/>
    <path id="Path_7761" data-name="Path 7761" d="M521.48,239.98h4.43l-11.92,23.28H441.94l2.9-5.68" fill="none" stroke="#a1c2ff" stroke-miterlimit="10" stroke-width="0.55" opacity="0.39"/>
    <ellipse id="Ellipse_164" data-name="Ellipse 164" cx="21.88" cy="16.44" rx="21.88" ry="16.44" transform="translate(491.806 164.998) rotate(-40.92)" fill="#e6f4ff"/>
    <ellipse id="Ellipse_165" data-name="Ellipse 165" cx="19.3" cy="14.5" rx="19.3" ry="14.5" transform="translate(495.026 164.764) rotate(-40.92)" fill="#ff8e9f"/>
    <path id="Path_7762" data-name="Path 7762" d="M519.42,166.43s-8.79,1.45-12.54,2.93a6.8,6.8,0,0,0-3.57,4.59h0c2.05,3.57,5.94,5.84,11,5.84,6.56,0,13.31-3.79,17.63-9.29C529.59,167.07,519.42,166.43,519.42,166.43Z" fill="#f73955"/>
    <path id="Path_7763" data-name="Path 7763" d="M516.33,162.69l-1.52,6.4a1.21,1.21,0,0,0,1,1.59,7.15,7.15,0,0,0,5.09-1.11,2.24,2.24,0,0,0,1.06-1.67c.22-3,.82-9.11.82-9.11Z" fill="#ff8d68"/>
    <path id="Path_7764" data-name="Path 7764" d="M515,155.9s-4.13,8.36-3.32,10.6c.93,1.54,9.23-1.91,10.59-4.15s4.48-6.3,2-8.84S518.08,151.84,515,155.9Z" fill="#ff8d68"/>
    <path id="Path_7765" data-name="Path 7765" d="M515,155.9a4.61,4.61,0,0,1,1.77-4.7c2.5-1.74,5.71-1.39,6.86.35a19.345,19.345,0,0,1,1.26,2,2.35,2.35,0,0,1,1.64,1.57c.4,1.3-2.2,4.61-3.25,5.57s-.84,1-.84,1l-.36-.46a20.3,20.3,0,0,1,.72-4c.13-.79-.76-1.92-2.34-2.18S518.26,156.24,515,155.9Z" fill="#7e3636"/>
    <path id="Path_7766" data-name="Path 7766" d="M523,159.7a1.46,1.46,0,0,1,1.6-.76c1,.34-1,3.53-2.09,3.31S523,159.7,523,159.7Z" fill="#ff8d68"/>
    <path id="Path_7767" data-name="Path 7767" d="M522,166.69a12.7,12.7,0,0,1-4.38,3.13,3.56,3.56,0,0,0-1,.87l-.39-1a2.21,2.21,0,0,1-1.06-2.38l-.3.23-.8,2a11.849,11.849,0,0,0-.55,2.56l2-1.11a3.88,3.88,0,0,0,2.19.06s.41,1.39.79,1.51,3.39-2.73,3.85-3.71a3.75,3.75,0,0,0,.39-2Z" fill="#fff"/>
    <path id="Path_7768" data-name="Path 7768" d="M585.72,170.37H543.64a1.59,1.59,0,0,1-1.49-2.34l6-16.36a3.71,3.71,0,0,1,3.19-2.34h42.08a1.58,1.58,0,0,1,1.48,2.34l-6,16.36a3.71,3.71,0,0,1-3.18,2.34Z" fill="#ff8e9f" opacity="0.39"/>
    <path id="Path_7769" data-name="Path 7769" d="M588.15,156.73H551.92l.63-1.75h36.24Z" fill="#94c3ff"/>
    <path id="Path_7770" data-name="Path 7770" d="M572.25,160.82H550.43l.64-1.75h21.81Z" fill="#94c3ff"/>
    <path id="Path_7771" data-name="Path 7771" d="M554.73,164.53h-5.65l.64-1.76h5.65Z" fill="#94c3ff"/>
    <path id="Path_7772" data-name="Path 7772" d="M545.59,177.9a4.39,4.39,0,0,1-3.7,2.63c-1.45,0-2.15-1.18-1.57-2.63a4.39,4.39,0,0,1,3.7-2.64C545.47,175.26,546.18,176.44,545.59,177.9Z" fill="#94c3ff"/>
    <path id="Path_7773" data-name="Path 7773" d="M554.74,177.9a4.4,4.4,0,0,1-3.7,2.63c-1.46,0-2.16-1.18-1.57-2.63a4.38,4.38,0,0,1,3.7-2.64C554.62,175.26,555.32,176.44,554.74,177.9Z" fill="#94c3ff"/>
    <path id="Path_7774" data-name="Path 7774" d="M563.88,177.9a4.39,4.39,0,0,1-3.7,2.63c-1.45,0-2.15-1.18-1.56-2.63a4.37,4.37,0,0,1,3.69-2.64C563.77,175.26,564.47,176.44,563.88,177.9Z" fill="#94c3ff"/>
    <path id="Path_7775" data-name="Path 7775" d="M573,177.9a4.4,4.4,0,0,1-3.7,2.63c-1.45,0-2.16-1.18-1.57-2.63a4.38,4.38,0,0,1,3.7-2.64C572.91,175.26,573.61,176.44,573,177.9Z" fill="#ff8d02"/>
    <path id="Path_7776" data-name="Path 7776" d="M582.17,177.9a4.37,4.37,0,0,1-3.69,2.63c-1.46,0-2.16-1.18-1.57-2.63a4.37,4.37,0,0,1,3.69-2.64C582.06,175.26,582.76,176.44,582.17,177.9Z" fill="#a1c2ff" opacity="0.39"/>
    <path id="Path_7777" data-name="Path 7777" d="M560.44,185.9l-11.61,12.07-12.03,4.77,13.64,10.01,13.7-11.7Z" fill="#a1c2ff" opacity="0.39"/>
    <path id="Path_7778" data-name="Path 7778" d="M557.69,192.91l-8.86,5.06-7.49,4.73L551.5,210l9.61-8.78Z" fill="#a1c2ff" opacity="0.7"/>
    <path id="Path_7779" data-name="Path 7779" d="M560.44,185.9l-11.61,12.07-12.03,4.77,13.6,10.1,13.74-11.79Z" fill="none" stroke="#4361c4" stroke-miterlimit="10" stroke-width="0.28"/>
    <path id="Path_7780" data-name="Path 7780" d="M555,202.17a1.41,1.41,0,0,1-1.18.85c-.47,0-.69-.38-.5-.85a1.39,1.39,0,0,1,1.18-.84C555,201.33,555.18,201.71,555,202.17Z" fill="#4361c4"/>
    <path id="Path_7781" data-name="Path 7781" d="M543.57,193.85l10.28,8.14-18.34.93" fill="none" stroke="#4361c4" stroke-miterlimit="10" stroke-width="0.28"/>
    <path id="Path_7782" data-name="Path 7782" d="M549.64,215.64l4.58-13.65,12.09-1.22" fill="none" stroke="#4361c4" stroke-miterlimit="10" stroke-width="0.28"/>
    <line id="Line_44" data-name="Line 44" x1="6.9" y2="17.77" transform="translate(554.22 184.22)" fill="none" stroke="#4361c4" stroke-miterlimit="10" stroke-width="0.28"/>
    <path id="Path_7783" data-name="Path 7783" d="M544.51,193.69a2.38,2.38,0,0,1-2,1.42c-.78,0-1.15-.64-.84-1.42a2.37,2.37,0,0,1,2-1.41C544.45,192.28,544.82,192.91,544.51,193.69Z" fill="#94c3ff"/>
    <path id="Path_7784" data-name="Path 7784" d="M536.19,202.93a2.35,2.35,0,0,1-2,1.42c-.78,0-1.16-.64-.84-1.42a2.34,2.34,0,0,1,2-1.41C536.13,201.52,536.51,202.15,536.19,202.93Z" fill="#ff8d02"/>
    <path id="Path_7785" data-name="Path 7785" d="M551,215.87a2.34,2.34,0,0,1-2,1.41c-.78,0-1.16-.63-.84-1.41a2.35,2.35,0,0,1,2-1.42C550.91,214.45,551.29,215.09,551,215.87Z" fill="#94c3ff"/>
    <path id="Path_7786" data-name="Path 7786" d="M568,200.79a2.37,2.37,0,0,1-2,1.41c-.78,0-1.15-.63-.84-1.41a2.35,2.35,0,0,1,2-1.41C567.9,199.38,568.27,200,568,200.79Z" fill="#94c3ff"/>
    <path id="Path_7787" data-name="Path 7787" d="M562.69,183.74a2.35,2.35,0,0,1-2,1.42c-.78,0-1.16-.64-.85-1.42a2.37,2.37,0,0,1,2-1.41A.93.93,0,0,1,562.69,183.74Z" fill="#ff8d02"/>
    <path id="Path_7788" data-name="Path 7788" d="M530.61,195.53H495.39l2.69-6.66H533.3Z" fill="#f73955"/>
    <path id="Path_7789" data-name="Path 7789" d="M509.4,210.53H489.33l1.15-2.86h20.07Z" fill="#ff8e9f" opacity="0.39"/>
    <path id="Path_7790" data-name="Path 7790" d="M506.39,204.82H491.63l2.7-6.67h14.75Z" fill="#ff8e9f" opacity="0.39"/>
    <path id="Path_7791" data-name="Path 7791" d="M584.62,275.91l17.24-38.66a1.41,1.41,0,0,0-1.3-2H552.2a4.54,4.54,0,0,0-4.15,2.69l-17.5,39.25a1.42,1.42,0,0,0,1.3,2h47.72A5.53,5.53,0,0,0,584.62,275.91Z" fill="#fff"/>
    <path id="Path_7872" data-name="Path 7872" d="M18.953,0C29.42,0,37.905,5.679,37.905,12.685S29.42,25.37,18.953,25.37,0,19.69,0,12.685,8.485,0,18.953,0Z" transform="matrix(0.774, -0.633, 0.633, 0.774, 540.973, 259.473)" fill="#ff8e9f" opacity="0.39"/>
    <g id="Group_152" data-name="Group 152" clip-path="url(#clip-path)">
      <path id="Path_7792" data-name="Path 7792" d="M568,258.09s7.84,3.9,8.67,7.47-2.65,13-2.65,13H542.89s5.11-11,9.08-13.64,11.64-4.58,11.64-4.58Z" fill="#f73955"/>
      <path id="Path_7793" data-name="Path 7793" d="M564.82,255.56l-2.44,5.28c-.31.66-.13,1.27.44,1.44a5.67,5.67,0,0,0,4.22-.49,2.31,2.31,0,0,0,1.16-1.31c.75-2.51,2.43-7.65,2.43-7.65Z" fill="#94c3ff"/>
      <path id="Path_7794" data-name="Path 7794" d="M565.08,249.69s-4.88,6.71-4.69,8.68c.43,1.38,7.62-.79,9.13-2.57s4.75-4.93,3.34-7.29S568.33,246.53,565.08,249.69Z" fill="#94c3ff"/>
      <path id="Path_7795" data-name="Path 7795" d="M565.29,248.71a3.012,3.012,0,0,0-.18.26c-.28.48-.7,1.44.47,1.5l1.57.08s2.51-1.42,3.49.09c.74,1.51-1.65,2.44-1.45,3.19s.09.59-.24,1a3.85,3.85,0,0,1-1.74,1.6c-1.13.5-2,.42-3.1,1s-3.16-.09-3.38-.59c-.5-.42-.79.5-1.11,1.09s-1.32.76-.36,1.52,1.66,1.09,3.33.08a8.15,8.15,0,0,1,3.4-1.34,5.81,5.81,0,0,0,3.58-2.32c.64-1,.84-2.39,1.38-2.9s.85,0,.61.59,2.05-.5,2.6-2.27-.42-1.68-.51-2.69,1.05-2.18-.18-3.11-2.37.25-2.8-.34-2.34-.67-3.86.59a4.63,4.63,0,0,0-1.6,3.05" fill="#4361c4"/>
      <path id="Path_7796" data-name="Path 7796" d="M570.67,253.13s.66-.85,1.4-.51-1.49,2.91-2.29,2.62S570.67,253.13,570.67,253.13Z" fill="#94c3ff"/>
      <path id="Path_7797" data-name="Path 7797" d="M560.21,257.11s.72-2.6,2.53-2.94,2.64.76,2.52,1.68a1.54,1.54,0,0,0,.68,1.43S561.36,259.47,560.21,257.11Z" fill="#4361c4"/>
    </g>
    <path id="Path_7798" data-name="Path 7798" d="M562.94,328.1l17.24-38.66a1.42,1.42,0,0,0-1.3-2H530.52a4.53,4.53,0,0,0-4.15,2.69l-17.5,39.25a1.42,1.42,0,0,0,1.29,2h47.72a5.54,5.54,0,0,0,5.06-3.28Z" fill="#fff"/>
    <path id="Path_7873" data-name="Path 7873" d="M19.47,0C30.223,0,38.94,5.834,38.94,13.03S30.223,26.06,19.47,26.06,0,20.226,0,13.03,8.717,0,19.47,0Z" transform="translate(521.624 310.63) rotate(-39.29)" fill="#ff8e9f" opacity="0.39"/>
    <g id="Group_153" data-name="Group 153" clip-path="url(#clip-path-2)">
      <path id="Path_7799" data-name="Path 7799" d="M549.36,303.86s2.38-1.13,2.7.24a2.65,2.65,0,0,1-.73,2.35s2.14-.59,2.71,1.24-1.15,2.71-.43,3.36,2.19,2.05.12,4.37-5.09,5-8.6,3.26-2.39-10.05-2.39-10.05l.86-2.44Z" fill="#4361c4"/>
      <path id="Path_7800" data-name="Path 7800" d="M547.08,296.86s-5.29.45-7,4.15,1.65,4,1.65,4Z" fill="#4361c4"/>
      <path id="Path_7801" data-name="Path 7801" d="M512.72,322l.34.61a81.673,81.673,0,0,0,7.7,8h7.55a95.583,95.583,0,0,0,9.34-10.1c0-.36,4.73-5.47,3.69-7.56s-2.38-1.75-2.38-1.75a6.25,6.25,0,0,0-3.25,2c-1.72,1.79-10.2,14.94-10.2,14.94a12.359,12.359,0,0,0-3.09-3.47c-2-1.49-7.88-4.65-7.88-4.65s.36-2.54.33-3-1.5-2.7-1.94-2.22.59,2.56.59,2.56S512.38,321.42,512.72,322Z" fill="#94c3ff"/>
      <path id="Path_7802" data-name="Path 7802" d="M531.61,326.94s.22,1.61.66,3.68h15c.34-3.38,1-10.18,1.46-11.8.56-2.17.06-6.79.24-8.06s-3.44-.8-3.44-.8l-4.73.08-.76.33a6,6,0,0,0-2.61,2.18c-.58.9-1.44,2.2-2.6,3.91-1.87,1.41-6,3.87-5.67,7S531.61,326.94,531.61,326.94Z" fill="#f73955"/>
      <path id="Path_7803" data-name="Path 7803" d="M542.37,307.17a29,29,0,0,0-5.34,11.7c1.36-.42,5.52-4.23,8-6.56a2.29,2.29,0,0,0,.94-2.52,10.739,10.739,0,0,1,.92-3.44C547.25,304.18,542.37,307.17,542.37,307.17Z" fill="#94c3ff"/>
      <path id="Path_7804" data-name="Path 7804" d="M555.52,328.37s.65.9,1.73,2.25H564c-1.29-1.71-2.32-3.09-2.64-3.58-1.09-1.66-8.76-18.38-13.43-16.3-.87.39-4,3-2.71,5.94S555.52,328.37,555.52,328.37Z" fill="#94c3ff"/>
      <path id="Path_7805" data-name="Path 7805" d="M542.18,300.33a35.8,35.8,0,0,0-3.3,4.91c-.86,1.67-.27,3.2,1.33,3.37,2.31.25,5.83-.32,7-1.64,1.72-2,5.4-5.44,3.9-8.14s-4.75-2.34-8.31.86a4.548,4.548,0,0,0-.62.64Z" fill="#94c3ff"/>
      <path id="Path_7806" data-name="Path 7806" d="M543.74,298.61s-2.32,3.79,4.26,6.2l.82.37s2.87-2.28,2.91-4.69a3.58,3.58,0,0,0-2.45-3.81C548,296.15,544.62,297.71,543.74,298.61Z" fill="#4361c4"/>
      <path id="Path_7807" data-name="Path 7807" d="M547.82,305.36s1.66-1.15,1.64-.09-2.35,2.19-2.6,1.75S547.82,305.36,547.82,305.36Z" fill="#94c3ff"/>
    </g>
    <path id="Path_7808" data-name="Path 7808" d="M510.39,296.07H457.12c-1.64,0-2.43-1.33-1.77-3l3.79-9.38a4.93,4.93,0,0,1,4.16-3h53.26c1.64,0,2.43,1.32,1.77,3l-3.79,9.38a4.93,4.93,0,0,1-4.15,3Z" fill="#ff8e9f"/>
    <path id="Path_7809" data-name="Path 7809" d="M509.97,289.16H464.1l.9-2.22h45.87Z" fill="#fff"/>
    <path id="Path_7810" data-name="Path 7810" d="M467.31,141.73H465.5c-.31,0-.47-.26-.34-.58l.73-1.8a1,1,0,0,1,.81-.58h1.8c.32,0,.47.26.34.58l-.72,1.8a1,1,0,0,1-.81.58Z" fill="#f9fbfc"/>
    <path id="Path_7811" data-name="Path 7811" d="M485.78,141.73H484c-.32,0-.47-.26-.34-.58l.72-1.8a1,1,0,0,1,.82-.58H487c.32,0,.47.26.34.58l-.73,1.8A1,1,0,0,1,485.78,141.73Z" fill="#ff8e9f"/>
    <path id="Path_7812" data-name="Path 7812" d="M463.87,150.23h-1.8c-.32,0-.47-.26-.34-.58l.72-1.8a1,1,0,0,1,.81-.58h1.81c.32,0,.47.26.34.58l-.73,1.8a1,1,0,0,1-.81.58Z" fill="#ff8e9f"/>
    <path id="Path_7813" data-name="Path 7813" d="M473.11,150.23h-1.8c-.32,0-.47-.26-.35-.58l.73-1.8a1,1,0,0,1,.81-.58h1.8c.32,0,.48.26.35.58l-.73,1.8a1,1,0,0,1-.81.58Z" fill="#f9fbfc"/>
    <path id="Path_7814" data-name="Path 7814" d="M482.35,150.23h-1.8c-.32,0-.48-.26-.35-.58l.73-1.8a1,1,0,0,1,.81-.58h1.8c.32,0,.48.26.35.58l-.73,1.8a1,1,0,0,1-.81.58Z" fill="#f9fbfc"/>
    <path id="Path_7815" data-name="Path 7815" d="M489.74,150.23h-1.8c-.32,0-.48-.26-.35-.58l.73-1.8a1,1,0,0,1,.81-.58h1.8c.32,0,.48.26.35.58l-.73,1.8a1,1,0,0,1-.81.58Z" fill="#f9fbfc"/>
    <path id="Path_7816" data-name="Path 7816" d="M460.44,158.73h-1.8c-.32,0-.48-.26-.35-.58l.73-1.8a1,1,0,0,1,.81-.58h1.8c.32,0,.48.26.35.58l-.73,1.8a1,1,0,0,1-.81.58Z" fill="#f9fbfc"/>
    <path id="Path_7817" data-name="Path 7817" d="M453.05,158.73h-1.8c-.32,0-.48-.26-.35-.58l.73-1.8a1,1,0,0,1,.81-.58h1.8c.32,0,.47.26.35.58l-.73,1.8a1,1,0,0,1-.81.58Z" fill="#f9fbfc"/>
    <path id="Path_7818" data-name="Path 7818" d="M469.68,158.73h-1.81c-.31,0-.47-.26-.34-.58l.73-1.8a1,1,0,0,1,.81-.58h1.8c.32,0,.47.26.34.58l-.72,1.8a1,1,0,0,1-.81.58Z" fill="#f9fbfc"/>
    <path id="Path_7819" data-name="Path 7819" d="M478.91,158.73h-1.8c-.32,0-.47-.26-.34-.58l.73-1.8a1,1,0,0,1,.81-.58h1.8c.32,0,.47.26.34.58l-.72,1.8a1,1,0,0,1-.82.58Z" fill="#ff8e9f"/>
    <path id="Path_7820" data-name="Path 7820" d="M457,167.23h-1.8c-.32,0-.47-.26-.34-.58l.73-1.8a1,1,0,0,1,.81-.58h1.8c.32,0,.47.26.34.58l-.73,1.8a1,1,0,0,1-.81.58Z" fill="#f9fbfc"/>
    <path id="Path_7821" data-name="Path 7821" d="M468,308.58h-2.5c-.45,0-.67-.37-.48-.82l1-2.54a1.34,1.34,0,0,1,1.14-.81h2.54c.45,0,.67.36.49.81l-1,2.54a1.35,1.35,0,0,1-1.19.82Z" fill="#4385ff"/>
    <path id="Path_7822" data-name="Path 7822" d="M494.08,308.58h-2.54c-.45,0-.66-.37-.48-.82l1-2.54a1.37,1.37,0,0,1,1.15-.81h2.54c.45,0,.66.36.48.81l-1,2.54A1.35,1.35,0,0,1,494.08,308.58Z" fill="#4385ff"/>
    <path id="Path_7823" data-name="Path 7823" d="M463.2,320.56h-2.54c-.45,0-.67-.37-.48-.82l1-2.54a1.34,1.34,0,0,1,1.14-.81h2.54c.45,0,.67.36.49.81l-1,2.54A1.35,1.35,0,0,1,463.2,320.56Z" fill="#bfd9ff"/>
    <path id="Path_7824" data-name="Path 7824" d="M476.22,320.56h-2.54c-.45,0-.66-.37-.48-.82l1-2.54a1.36,1.36,0,0,1,1.15-.81h2.53c.45,0,.67.36.49.81l-1,2.54A1.35,1.35,0,0,1,476.22,320.56Z" fill="#ff8d02"/>
    <path id="Path_7825" data-name="Path 7825" d="M489.24,320.56H486.7c-.45,0-.66-.37-.48-.82l1-2.54a1.37,1.37,0,0,1,1.15-.81h2.54c.45,0,.66.36.48.81l-1,2.54a1.35,1.35,0,0,1-1.15.82Z" fill="#bfd9ff"/>
    <path id="Path_7826" data-name="Path 7826" d="M499.66,320.56h-2.54c-.45,0-.67-.37-.48-.82l1-2.54a1.34,1.34,0,0,1,1.14-.81h2.54c.45,0,.67.36.49.81l-1,2.54A1.35,1.35,0,0,1,499.66,320.56Z" fill="#bfd9ff"/>
    <path id="Path_7827" data-name="Path 7827" d="M458.36,332.54h-2.54c-.45,0-.67-.37-.48-.82l1-2.54a1.34,1.34,0,0,1,1.14-.81H460c.45,0,.67.36.49.81l-1,2.54A1.35,1.35,0,0,1,458.36,332.54Z" fill="#bfd9ff"/>
    <path id="Path_7828" data-name="Path 7828" d="M447.94,332.54H445.4c-.45,0-.66-.37-.48-.82l1-2.54a1.37,1.37,0,0,1,1.15-.81h2.54c.45,0,.66.36.48.81l-1,2.54a1.38,1.38,0,0,1-1.15.82Z" fill="#bfd9ff"/>
    <path id="Path_7829" data-name="Path 7829" d="M471.38,332.54h-2.54c-.45,0-.67-.37-.48-.82l1-2.54a1.36,1.36,0,0,1,1.15-.81h2.53c.45,0,.67.36.49.81l-1,2.54a1.35,1.35,0,0,1-1.15.82Z" fill="#bfd9ff"/>
    <path id="Path_7830" data-name="Path 7830" d="M484.4,332.54h-2.54c-.45,0-.66-.37-.48-.82l1-2.54a1.37,1.37,0,0,1,1.15-.81h2.54c.44,0,.66.36.48.81l-1,2.54A1.35,1.35,0,0,1,484.4,332.54Z" fill="#ff8d02"/>
    <path id="Path_7831" data-name="Path 7831" d="M453.52,344.52H451c-.45,0-.67-.37-.48-.82l1-2.54a1.34,1.34,0,0,1,1.14-.81h2.54c.45,0,.67.36.49.81l-1,2.54a1.35,1.35,0,0,1-1.17.82Z" fill="#ff8d02"/>
    <path id="Path_7832" data-name="Path 7832" d="M512.33,258.13H440.27l11.92-23.28h72.06Z" fill="#ff8e9f" opacity="0.39"/>
    <ellipse id="Ellipse_170" data-name="Ellipse 170" cx="10.72" cy="8.36" rx="10.72" ry="8.36" transform="translate(487.178 247.193) rotate(-41.45)" fill="#f73955"/>
    <path id="Path_7833" data-name="Path 7833" d="M498.31,251.21a.92.92,0,0,1-.74-.34l-2.44-3.26a1.24,1.24,0,0,1,.41-1.65,1.16,1.16,0,0,1,1.64,0L499,248.4l6.53-5.23a1.15,1.15,0,0,1,1.65,0,1.24,1.24,0,0,1-.41,1.64l-7.56,6.06A1.54,1.54,0,0,1,498.31,251.21Z" fill="#fff"/>
    <path id="Path_7834" data-name="Path 7834" d="M444,190.55a3,3,0,1,1-3-3.31,3.16,3.16,0,0,1,3,3.31Z" fill="none" stroke="#505e83" stroke-miterlimit="10" stroke-width="0.52"/>
    <path id="Path_7835" data-name="Path 7835" d="M412.63,208.44a12.31,12.31,0,0,0-8.33,5.13c-3.56,4.81,1.6,22.46,16.93,29.59,10,3.92,10.7-5,8.2-11.23S419.72,209.9,412.63,208.44Z" fill="#ff8e9f"/>
    <path id="Path_7837" data-name="Path 7837" d="M414.1,384.08s1-2.22,4.88-1.63,4.29,1.33,4.73,3.26,1.78,4,2.67,4.44,4.14,2.66,6.81,3.1,3,2.08,2.36,2.82-10.65,1.33-12.87,1c0,0-7.55-.15-9.32-.74S414,384.82,414.1,384.08Z" fill="#16142a"/>
    <path id="Path_7838" data-name="Path 7838" d="M433.38,384.08s1-2.22,4.88-1.63,4.29,1.33,4.74,3.26,1.77,4,2.66,4.44,4.14,2.66,6.81,3.1,3,2.08,2.36,2.82-10.65,1.33-12.87,1c0,0-7.55-.15-9.32-.74S433.23,384.82,433.38,384.08Z" fill="#16142a"/>
    <path id="Path_7839" data-name="Path 7839" d="M410.53,329a7.3,7.3,0,0,1,5.35-8.19c6.47-2.05,7.7.94,9.66,6.53s-1.66,58.37-1.66,58.37-7.89.18-9.8-.95c0,0-5.27-35-4.87-43.55S410.53,329,410.53,329Z" fill="#2b3554"/>
    <path id="Path_7840" data-name="Path 7840" d="M440.84,192.8s1.51,2,1.51,3.12S440.3,197,440.3,197Z" fill="#ff7759"/>
    <path id="Path_7841" data-name="Path 7841" d="M433.54,171.93s4.38,1.12,6.86,7.84.83,21-.82,22.69-6.68,1-13.65-1.26c-7.35-2.43-9.84-10.08-11.16-15.12C412.25,176.41,420.66,166.47,433.54,171.93Z" fill="#ff8d68"/>
    <path id="Path_7842" data-name="Path 7842" d="M417.84,209l3.55-12.73s7.11-2.07,11.54,2.67l1.48,2.07v8.29A47.6,47.6,0,0,1,417.84,209Z" fill="#ff8d68"/>
    <path id="Path_7843" data-name="Path 7843" d="M407.93,277.56a116.9,116.9,0,0,0,0,33.29c2.66,17.76,8,19.54,12.87,19.54s6.2-14.21,7.1-20.39,4.44-27.52-2.22-32.4S411.48,272.23,407.93,277.56Z" fill="#2b3554"/>
    <path id="Path_7844" data-name="Path 7844" d="M426.57,298.42s-5.33-14.2,4-20.42,16.42-5.33,18.64,4.88,2.67,45.29-.44,52.39S434.56,331.27,426.57,298.42Z" fill="#2b3f63"/>
    <path id="Path_7845" data-name="Path 7845" d="M416,209s1-3.48,1.88-3.78,11.84-1.48,17.76,2.07c2.66,2.08,2.37,3.55,2.37,3.55S420.3,207.42,416,209Z" fill="#8e1a2b"/>
    <path id="Path_7846" data-name="Path 7846" d="M448.5,277.56s.89,2.13.36,2.85c-.71.71-20.85,7.84-42.06,2.67-.36,0,.53-3.56.53-3.56Z" fill="#8e1a2b"/>
    <path id="Path_7847" data-name="Path 7847" d="M406.59,245.44c-.59-4.14-2.36-24.56-1.77-27.52.55-2.77,2.91-7.86,7.81-9.48a8.834,8.834,0,0,1,1.07-.29s18.35-1.18,31.37,4.44c0,0,4.46,3.7,5.28,22.57,0,0-.24,3.18-1,10s.36,11.76,1.43,18.53,3.21,13.55-4.63,15c-7.49,1.43-28.17,5-40.29,1.43-2.49-1.78,1.07-10,1.07-16.4S406.59,245.44,406.59,245.44Z" fill="#f73955"/>
    <path id="Path_7848" data-name="Path 7848" d="M435,329.94a7.29,7.29,0,0,1,6.21-7.55c6.66-1.33,7.55,1.78,8.88,7.55s-6.56,56.11-6.56,56.11-8.72.5-10.49-.83c0,0-2-34.86-.71-43.29S435,329.94,435,329.94Z" fill="#2b3f63"/>
    <path id="Path_7849" data-name="Path 7849" d="M424.8,295.09s6.21,20,10.87,29.75" fill="none" stroke="#2a2e59" stroke-miterlimit="10" stroke-width="0.67"/>
    <path id="Path_7850" data-name="Path 7850" d="M437.45,328.83a7.9,7.9,0,0,1,7.55,0" fill="none" stroke="#2a2e59" stroke-miterlimit="10" stroke-width="0.67"/>
    <path id="Path_7851" data-name="Path 7851" d="M436.78,331.27s3.11-1.77,8.44,2" fill="none" stroke="#2a2e59" stroke-miterlimit="10" stroke-width="0.67"/>
    <path id="Path_7852" data-name="Path 7852" d="M413.48,326.17s2.44-2.22,8,.22" fill="none" stroke="#2a2e59" stroke-miterlimit="10" stroke-width="0.67"/>
    <path id="Path_7853" data-name="Path 7853" d="M415.25,328.39a6.66,6.66,0,0,1,6.88.89" fill="none" stroke="#2a2e59" stroke-miterlimit="10" stroke-width="0.67"/>
    <line id="Line_45" data-name="Line 45" x1="1.33" y2="45.28" transform="translate(422.13 331.94)" fill="none" stroke="#2a2e59" stroke-miterlimit="10" stroke-width="0.67"/>
    <path id="Path_7854" data-name="Path 7854" d="M441.81,294s5,3,7.11-1.77" fill="none" stroke="#2a2e59" stroke-miterlimit="10" stroke-width="0.67"/>
    <path id="Path_7855" data-name="Path 7855" d="M446.85,294.57s2.36,18.35,1.77,30.49" fill="none" stroke="#2a2e59" stroke-miterlimit="10" stroke-width="0.67"/>
    <path id="Path_7856" data-name="Path 7856" d="M431.57,199.53s1.55,4,6.77,3.33" fill="none" stroke="#e66657" stroke-miterlimit="10" stroke-width="0.67"/>
    <path id="Path_7857" data-name="Path 7857" d="M438.26,174.87s2.53,3.48,2.69,5.53-3.16,4.11-3.64,5.37.62,2.86.14,3.65a7.44,7.44,0,0,0-.62,2.4l.16,1.79a1.28,1.28,0,0,1-1,1.38l-.38.08a1.15,1.15,0,0,1-1.29-.7c-.57-1.43-1.74-4.1-2.67-4.33-1.26-.31-2.52,1.9-3,3-.27.63-.94,2.31-1.47,3.66a3.29,3.29,0,0,1-2.84,2.08,15.06,15.06,0,0,1-3.61,0c-1.11-.31-6.78-10.78-6.93-15.84s3.32-10.11,7-11.69S431.47,168.23,438.26,174.87Z" fill="#26264f"/>
    <path id="Path_7859" data-name="Path 7859" d="M412.68,209.11" fill="none" stroke="#a6d0f4" stroke-miterlimit="10" stroke-width="0.53"/>
    <path id="Path_7860" data-name="Path 7860" d="M429.16,168s3.48.14,4.68-1.6,5.08-2.14,7.89.67,2.67,8,.27,9.89c0,0,2.8-.53,3.21,1.47s-3.08,5.08-7.22,6c0,0-6.69-1.87-8.69-.67s-15.51-.14-15.51-.14-2.94-2.67-2.14-5.07,1.61.13,1.61.13-.67-3.34,3.74-8.16S427.56,168.39,429.16,168Z" fill="#26264f"/>
    <path id="Path_7861" data-name="Path 7861" d="M494.8,239.64l9.49.4s-.27.93-1.74,1.2-6.95.94-6.95.94Z" fill="#eb7754"/>
    <path id="Path_7862" data-name="Path 7862" d="M496,241.64a25.238,25.238,0,0,1,3.88-.4c.67.13,1.34,4,1.34,4l-2.54,2.67s-.94-.4,0-1.87l.53-.93-3.88-1.47Z" fill="#ff8d68"/>
    <path id="Path_7863" data-name="Path 7863" d="M486.78,243.91l4-.53s3.34-3.34,4-3.74,4,4.81,4.41,5.48c0,.53-2,2.27-4,2.54s-2.67-.27-2.67-.27l-4.41,1.74Z" fill="#ff8d68"/>
    <path id="Path_7864" data-name="Path 7864" d="M445.07,212.59s-8.95-.09-8.69,10.87,19,28.87,24.06,31,26.74-3.74,28.61-4.81,1.34-5.61-1.6-6.68l-22.19-1.07S451.35,213.48,445.07,212.59Z" fill="#ff8e9f"/>
    <path id="Path_7865" data-name="Path 7865" d="M465.61,243.69a8.19,8.19,0,0,1,2,6.6" fill="none" stroke="#a6d0f4" stroke-miterlimit="10" stroke-width="0.53"/>
    <path id="Path_7866" data-name="Path 7866" d="M467,243.16a7.27,7.27,0,0,1,4.81,6.23" fill="none" stroke="#a6d0f4" stroke-miterlimit="10" stroke-width="0.53"/>
    <line id="Line_46" data-name="Line 46" x1="9.27" transform="translate(434.69 190.55)" fill="none" stroke="#505e83" stroke-miterlimit="10" stroke-width="0.52"/>
    <path id="Path_7867" data-name="Path 7867" d="M435.78,191.66s-.63-2.73-2.94-1.47.42,7.77,2.31,7.35S436.21,192.71,435.78,191.66Z" fill="#ff7759"/>
    <path id="Path_7868" data-name="Path 7868" d="M416.46,178.81s6.42-1.47,11,3.34" fill="none" stroke="#663136" stroke-miterlimit="10" stroke-width="0.53"/>
    <path id="Path_7869" data-name="Path 7869" d="M417.31,177.83a7.73,7.73,0,0,1,7.49-1.69" fill="none" stroke="#663136" stroke-miterlimit="10" stroke-width="0.53"/>
    <path id="Path_7870" data-name="Path 7870" d="M416.69,180.06a4.72,4.72,0,0,1,3.3,2.41" fill="none" stroke="#663136" stroke-miterlimit="10" stroke-width="0.53"/>
    <path id="Path_7871" data-name="Path 7871" d="M436.12,167.32s6.41,2,4.94,7.88" fill="none" stroke="#663136" stroke-miterlimit="10" stroke-width="0.53"/>
  </g>
</svg>
