<svg xmlns="http://www.w3.org/2000/svg" width="579.095" height="235.126" viewBox="0 0 579.095 235.126">
  <g id="logo-ra" transform="translate(-4778 -10872.874)">
    <text id="Recruiter" transform="translate(5050 11079)" fill="#072753" font-size="120" font-family="Inter-Bold, Inter" font-weight="700"><tspan x="-271.428" y="0">Recruiter</tspan></text>
    <g id="noun-job-2526068" transform="translate(5121.842 10858.874)">
      <path id="Path_7752" data-name="Path 7752" d="M232.865,151.084,202.3,120.515a65.06,65.06,0,0,0,13.851-40.441C216.307,43.614,186.533,14,150.073,14a66.154,66.154,0,1,0,40.441,118.456l30.569,30.41a8.331,8.331,0,0,0,11.782-11.782ZM100.717,80.074a49.436,49.436,0,1,1,49.357,49.516,49.4,49.4,0,0,1-49.357-49.516Z" transform="translate(0 0)" fill="#f73955"/>
      <path id="Path_7753" data-name="Path 7753" d="M292.243,134.641a15.921,15.921,0,1,1-15.921-15.921,15.921,15.921,0,0,1,15.921,15.921" transform="translate(-126.248 -74.947)" fill="#f73955"/>
      <path id="Path_7754" data-name="Path 7754" d="M261.406,242.713l-7.164,17.832-1.593-12.9h.955a1.089,1.089,0,0,0,1.115-1.115v-3.5a1.089,1.089,0,0,0-1.115-1.115h-5.732a1.089,1.089,0,0,0-1.115,1.115v3.5a1.089,1.089,0,0,0,1.115,1.115h.955l-1.593,12.9-7.164-17.832A18.009,18.009,0,0,0,226.378,258l-1.433,9.234a4.549,4.549,0,0,0,4.458,5.413c10.19.478,32,.478,42.192,0a4.69,4.69,0,0,0,4.458-5.413L274.621,258c-.318-7.642-6.049-13.534-13.214-15.285Z" transform="translate(-100.825 -163.117)" fill="#f73955"/>
    </g>
  </g>
</svg>
